# Blender v2.78 (sub 0) OBJ File: 'PolarizedLight.blend'
# www.blender.org
v -1.647800 -2.163436 -2.500000
v -1.440040 -2.096674 2.500000
v -1.807300 2.402712 -2.500000
v -1.777818 1.833603 2.500000
v 1.657538 -2.076550 -2.500000
v 2.000000 -2.184601 2.241644
v 1.861452 2.336875 -2.500000
v 1.445974 2.156236 2.500000
v -1.890746 0.692287 -2.500000
v -1.882607 0.500000 -2.500000
v -1.890746 0.306159 -2.500000
v -1.890746 -1.500000 -2.500000
v -2.000000 -1.500000 2.500000
v -2.000000 -0.132495 2.500000
v -1.187476 0.500000 2.500000
v -1.907696 1.235124 2.500000
v 2.000000 -1.500000 -2.500000
v 2.000000 -0.500000 -2.500000
v 1.837501 0.500000 -2.500000
v 2.000000 1.500000 -2.500000
v 2.000000 1.500000 2.500000
v 1.772721 -0.004797 2.241454
v 1.225072 -0.500000 2.306011
v 2.000000 -0.959871 2.500000
v 1.000000 2.500000 -2.500000
v 0.000000 2.196231 -2.500000
v -1.000000 2.250410 -2.500000
v -1.000000 2.500000 2.500000
v 0.244627 2.066515 2.500000
v 1.000000 2.249158 2.500000
v -1.000000 -2.500000 -2.500000
v 0.000000 -2.434016 -2.500000
v 1.000000 -2.368032 -2.500000
v 1.000000 -2.185154 2.500000
v 0.170012 -2.500000 2.500000
v -1.000000 -2.210073 2.500000
v -1.000000 1.500000 2.500000
v 0.000000 1.500000 2.260197
v 1.000000 1.500000 2.500000
v -1.000000 0.500000 2.500000
v 0.000000 0.500000 2.500000
v 1.000000 0.500000 2.542318
v -1.000000 -0.500000 2.500000
v 0.000000 -0.500000 2.590491
v 1.000000 -0.500000 2.339749
v -1.000000 -1.500000 2.687895
v 0.000000 -1.500000 2.500000
v 1.000000 -1.500000 2.500000
v -2.000000 -2.500000 -1.250000
v -2.000000 -2.500000 0.000000
v -1.838786 -2.446268 1.324298
v -2.000000 2.165679 1.250000
v -2.000000 2.500000 0.000000
v -2.000000 2.500000 -1.250000
v 1.679096 2.327914 1.250000
v 2.099678 2.559049 0.000000
v 2.000000 2.500000 -1.250000
v 1.826251 -2.380508 1.250000
v 2.000000 -2.500000 0.000000
v 2.000000 -2.500000 -1.250000
v 2.000000 1.500000 1.250000
v 2.000000 1.500000 0.000000
v 2.000000 1.500000 -1.250000
v 2.000000 -0.004797 1.250000
v 2.000000 -0.272480 0.000000
v 2.000000 -0.464267 -1.250000
v 1.578231 -0.500000 1.250000
v 1.666374 -0.500000 0.000000
v 2.000000 -0.500000 -1.250000
v 2.000000 -0.959871 1.250000
v 2.000000 -0.667541 0.000000
v 2.000000 -0.516981 -1.250000
v -2.000000 -1.500000 1.250000
v -1.845551 -1.500000 0.000000
v -2.090474 -1.500000 -1.250000
v -2.000000 -0.132495 1.250000
v -2.000000 0.026662 0.000000
v -2.000000 0.139762 -1.250000
v -1.477168 0.500000 1.250000
v -1.742104 0.500000 0.000000
v -1.880728 0.500000 -1.250000
v -2.000000 1.235124 1.250000
v -2.000000 1.068727 0.000000
v -2.000000 0.953214 -1.250000
v 1.136010 -2.500000 1.250000
v 0.822138 -2.500000 0.000000
v 1.000000 -2.500000 -1.250000
v 0.134703 -2.500000 1.250000
v 0.000000 -2.271238 0.000000
v 0.000000 -2.500000 -1.250000
v -1.000000 -2.500000 1.250000
v -1.000000 -2.500000 0.000000
v -1.000000 -2.500000 -1.250000
v -1.000000 2.500000 1.250000
v -1.000000 2.500000 0.000000
v -1.000000 2.500000 -1.250000
v 0.244627 2.500000 1.250000
v 0.156390 2.353381 0.000000
v 0.000000 2.500000 -1.250000
v 1.000000 2.500000 1.250000
v 1.000000 2.500000 0.000000
v 1.000000 2.500000 -1.250000
vt 0.6638 0.8618
vt 0.6100 0.9741
vt 0.5801 0.8618
vt 0.6401 0.3814
vt 0.5997 0.4945
vt 0.5786 0.3814
vt 0.1495 0.8646
vt 0.0394 0.9538
vt 0.0218 0.8646
vt 0.6602 0.3765
vt 0.6204 0.4896
vt 0.5843 0.3833
vt 0.4060 0.1760
vt 0.4657 0.1320
vt 0.4770 0.1760
vt 0.0728 0.0982
vt 0.1061 0.1760
vt 0.0061 0.1760
vt 0.2061 0.1572
vt 0.2061 0.1760
vt 0.3061 0.1760
vt 0.4060 0.0760
vt 0.4295 0.9770
vt 0.3705 0.8646
vt 0.4450 0.8646
vt 0.2353 0.9538
vt 0.2353 0.8646
vt 0.1908 0.8646
vt 0.1495 0.9770
vt 0.9632 0.9741
vt 0.9096 0.8618
vt 0.9946 0.8684
vt 0.9096 0.9741
vt 0.7867 0.8618
vt 0.7867 0.9741
vt 0.7298 0.8618
vt 0.6638 0.9741
vt 0.3061 0.3984
vt 0.4060 0.3759
vt 0.3520 0.4759
vt 0.3061 0.2760
vt 0.3061 0.3759
vt 0.4060 0.2760
vt 0.2061 0.3759
vt 0.2566 0.4532
vt 0.2061 0.2760
vt 0.1061 0.4759
vt 0.1061 0.3759
vt 0.1061 0.2760
vt 0.0405 0.4205
vt 0.0495 0.3004
vt 0.0312 0.3759
vt 0.4745 0.4759
vt 0.4745 0.3759
vt 0.5060 0.2929
vt 0.9316 0.4663
vt 0.8535 0.3765
vt 0.9159 0.3765
vt 0.8411 0.4896
vt 0.7628 0.3765
vt 0.6602 0.4896
vt 0.8914 0.4945
vt 0.8210 0.3814
vt 0.9115 0.3814
vt 0.8210 0.4945
vt 0.7084 0.3814
vt 0.6401 0.4945
vt 0.7305 0.1552
vt 0.6401 0.0421
vt 0.7305 0.0421
vt 0.7164 0.2683
vt 0.6401 0.1552
vt 0.6401 0.2683
vt 0.8210 0.0421
vt 0.8210 0.2683
vt 0.8210 0.1552
vt 0.8941 0.0421
vt 0.9115 0.2683
vt 0.9115 0.1552
vt 0.7507 0.1503
vt 0.6602 0.0372
vt 0.7507 0.0372
vt 0.6602 0.2634
vt 0.6602 0.1503
vt 0.7507 0.2634
vt 0.8411 0.1503
vt 0.8411 0.0372
vt 0.8251 0.2634
vt 0.9006 0.0372
vt 0.9316 0.2634
vt 0.9316 0.1503
vt 0.7298 0.6371
vt 0.7126 0.5247
vt 0.7298 0.5247
vt 0.7298 0.7494
vt 0.6891 0.6371
vt 0.6787 0.7494
vt 0.7473 0.5247
vt 0.7622 0.6371
vt 0.7724 0.7494
vt 0.9096 0.5247
vt 0.9096 0.6371
vt 0.9096 0.7494
vt 0.9692 0.5247
vt 0.9995 0.7494
vt 0.9995 0.6371
vt 0.1908 0.5276
vt 0.1893 0.6400
vt 0.1009 0.5276
vt 0.1908 0.7523
vt 0.1908 0.6400
vt 0.1757 0.7523
vt 0.1940 0.6400
vt 0.2807 0.5276
vt 0.2113 0.7523
vt 0.3705 0.6400
vt 0.3705 0.5276
vt 0.3705 0.7523
vt 0.4458 0.5276
vt 0.4604 0.6400
vt 0.4657 0.7523
vt 0.6016 0.0372
vt 0.5697 0.1503
vt 0.5697 0.2634
vt 0.0111 0.6400
vt 0.0491 0.5276
vt 0.0111 0.7523
vt 0.5621 0.0421
vt 0.5496 0.1552
vt 0.5405 0.2683
vt 0.5588 0.5247
vt 0.5501 0.6371
vt 0.5501 0.7494
vt 0.1326 0.0852
vt 0.2693 0.0760
vt 0.3705 0.9770
vt 0.1908 0.9596
vt 0.7298 0.9741
vt 0.7660 0.4896
vt 0.7084 0.4945
vn -0.9846 0.0000 0.1750
vn 0.2418 0.9542 0.1761
vn 0.9816 -0.1201 -0.1483
vn -0.0350 -0.9546 0.2957
vn -0.0658 -0.2553 0.9646
vn 0.0000 0.0000 1.0000
vn -0.1816 0.1816 0.9665
vn 0.9100 0.3527 0.2181
vn 0.9747 0.0000 0.2234
vn 0.7500 -0.6387 0.1719
vn 0.7370 0.6759 0.0000
vn -0.9265 -0.1301 0.3529
vn -1.0000 0.0000 0.0000
vn -0.7708 0.6371 0.0000
vn -0.8134 -0.5785 0.0601
vn -0.1157 0.2142 0.9699
vn 0.2403 0.1536 0.9585
vn -0.0898 -0.0898 0.9919
vn 0.2619 -0.1657 0.9508
vn 0.2386 -0.1928 0.9518
vn -0.0898 0.0898 0.9919
vn 0.2397 -0.1994 0.9502
vn -0.0422 0.0422 0.9982
vn 0.2271 0.2271 0.9470
vn -0.1194 -0.3429 0.9318
vn 0.1108 -0.2051 0.9724
vn 0.1683 -0.9722 0.1626
vn 0.0000 -0.9697 0.2442
vn 0.0000 -0.9741 0.2259
vn -0.3030 0.9063 0.2946
vn 0.0000 1.0000 0.0000
vn 0.0000 0.9805 0.1968
vn -0.2831 0.9320 -0.2265
vn 0.0000 0.9932 0.1165
vn -0.1703 0.9800 -0.1029
vn 0.0526 0.9704 -0.2358
vn 0.1258 0.9921 0.0000
vn 0.1819 0.9643 -0.1925
vn 0.0657 -0.9964 -0.0526
vn 0.0000 -1.0000 0.0000
vn 0.2230 -0.9748 0.0000
vn 0.0655 -0.9923 -0.1048
vn -0.2652 -0.9531 -0.1458
vn 0.4034 -0.9100 -0.0961
vn -0.9991 -0.0423 0.0015
vn -0.9616 -0.2531 0.1066
vn -0.8942 -0.4055 0.1895
vn -0.9991 0.0420 0.0015
vn -0.9441 0.3126 0.1047
vn -0.8765 0.4776 0.0608
vn -0.9962 0.0000 -0.0871
vn -0.9985 0.0551 0.0050
vn -0.9948 -0.1006 -0.0128
vn -0.9286 -0.3401 -0.1484
vn -0.9959 -0.0901 0.0000
vn -0.9810 0.1515 -0.1212
vn 1.0000 0.0000 0.0000
vn 0.9662 0.0000 0.2579
vn 0.4485 0.8932 0.0316
vn 0.9870 0.1604 -0.0046
vn 0.5630 -0.8255 0.0397
vn 0.9871 -0.1604 0.0000
vn 0.9866 0.1633 0.0000
vn 0.9489 -0.0893 0.3028
vn -0.4610 -0.8874 0.0000
vn 0.0000 -0.9992 0.0405
vn 0.7959 -0.4728 -0.3782
vn 0.1861 0.9825 0.0000
vn -0.0529 0.9850 0.1643
vn -0.9941 0.0485 -0.0970
vn -0.9747 0.2115 0.0720
vn 0.2002 0.9606 0.1928
vn -0.2435 -0.9448 0.2191
vn -0.1820 -0.1708 0.9684
vn 0.7641 0.6451 0.0000
vn 0.9888 -0.1493 0.0000
vn 0.6681 -0.7097 0.2234
vn 0.4742 0.8660 0.1586
vn -0.7292 -0.6843 0.0000
vn -0.6081 0.7812 0.1409
vn -0.7047 -0.6904 0.1633
vn 0.1464 0.1565 0.9768
vn 0.0000 -0.0901 0.9959
vn 0.1816 0.1816 0.9665
vn 0.1454 -0.1964 0.9697
vn -0.0421 0.0900 0.9950
vn 0.0000 0.0423 0.9991
vn -0.2271 0.2271 0.9470
vn -0.2227 -0.2969 0.9286
vn 0.2332 0.0000 0.9724
vn 0.2501 0.0000 0.9682
vn 0.1787 -0.2517 0.9512
vn 0.0652 -0.9659 0.2504
vn 0.3547 -0.9349 -0.0100
vn -0.2405 -0.9706 0.0068
vn -0.6506 0.7594 0.0000
vn 0.3126 0.8975 0.3112
vn -0.2227 0.9211 0.3194
vn -0.1712 0.9852 0.0000
vn 0.0000 0.9806 -0.1958
vn 0.1252 0.9871 0.1001
vn 0.0000 0.9932 -0.1165
vn 0.0000 0.9970 -0.0776
vn -0.3073 0.9193 0.2459
vn 0.2195 -0.9597 0.1756
vn 0.0000 -0.9837 -0.1800
vn 0.0000 -0.9986 -0.0527
vn -0.2640 -0.9488 0.1736
vn 0.0000 -0.9471 -0.3209
vn 0.1694 -0.9786 0.1171
vn -0.9666 -0.2544 -0.0314
vn -0.9101 -0.4127 0.0381
vn -0.8125 -0.5779 0.0769
vn -0.9485 0.3140 -0.0411
vn -0.8773 0.4780 0.0432
vn -0.7607 0.6288 0.1612
vn -0.9860 0.0544 -0.1575
vn -0.9765 -0.0988 0.1913
vn -0.9925 0.0000 -0.1226
vn -0.9526 -0.0862 -0.2916
vn -0.9703 0.1499 0.1901
vn -0.9796 -0.1570 0.1256
vn 0.4462 0.8885 0.1070
vn 0.7279 0.6676 0.1561
vn 0.5589 -0.8196 0.1258
vn 0.7541 -0.6422 0.1375
vn 0.9917 0.0000 -0.1289
vn 0.9939 0.0000 -0.1102
vn 0.9928 -0.0934 -0.0748
vn 0.9324 0.3614 0.0000
vn 0.0000 -0.9656 -0.2600
vn -0.0639 -0.9980 0.0000
vn 0.9817 -0.1201 0.1479
vn 0.0000 0.9916 -0.1294
vn -0.0536 0.9976 -0.0429
vn 0.2456 0.9694 0.0000
vn -0.9883 0.0000 -0.1524
s off
f 82/1/1 4/2/1 52/3/1
f 100/4/2 8/5/2 55/6/2
f 70/7/3 6/8/3 58/9/3
f 91/10/4 2/11/4 51/12/4
f 46/13/5 2/14/5 36/15/5
f 4/16/6 37/17/6 28/18/6
f 37/17/6 15/19/6 40/20/6
f 15/19/6 43/21/6 40/20/6
f 43/21/7 13/22/7 46/13/7
f 8/23/8 61/24/8 55/25/8
f 61/24/9 22/26/9 64/27/9
f 22/26/10 67/28/10 64/27/10
f 67/28/11 24/29/11 70/7/11
f 2/30/12 73/31/12 51/32/12
f 13/33/13 76/34/13 73/31/13
f 14/35/14 79/36/14 76/34/14
f 79/36/15 16/37/15 82/1/15
f 23/38/16 48/39/16 24/40/16
f 44/41/17 48/39/17 45/42/17
f 43/21/18 47/43/18 44/41/18
f 42/44/19 23/38/19 22/45/19
f 42/44/20 44/41/20 45/42/20
f 41/46/21 43/21/21 44/41/21
f 21/47/22 42/44/22 22/45/22
f 39/48/23 41/46/23 42/44/23
f 37/17/24 41/46/24 38/49/24
f 8/50/6 39/48/6 21/47/6
f 29/51/6 39/48/6 30/52/6
f 28/18/25 38/49/25 29/51/25
f 48/39/26 6/53/26 24/40/26
f 47/43/6 34/54/6 48/39/6
f 47/43/6 36/15/6 35/55/6
f 6/56/27 85/57/27 58/58/27
f 34/59/28 88/60/28 85/57/28
f 88/60/29 36/61/29 91/10/29
f 4/62/30 94/63/30 52/64/30
f 28/65/31 97/66/31 94/63/31
f 97/66/32 30/67/32 100/4/32
f 99/68/33 25/69/33 26/70/33
f 98/71/34 102/72/34 99/68/34
f 97/66/35 101/73/35 98/71/35
f 27/74/36 99/68/36 26/70/36
f 95/75/31 99/68/31 96/76/31
f 94/63/37 98/71/37 95/75/37
f 3/77/38 96/76/38 27/74/38
f 53/78/31 96/76/31 54/79/31
f 53/78/31 94/63/31 95/75/31
f 90/80/39 31/81/39 32/82/39
f 90/80/40 92/83/40 93/84/40
f 89/85/41 91/10/41 92/83/41
f 87/86/42 32/82/42 33/87/42
f 86/88/40 90/80/40 87/86/40
f 86/88/43 88/60/43 89/85/43
f 5/89/44 87/86/44 33/87/44
f 59/90/40 87/86/40 60/91/40
f 59/90/40 85/57/40 86/88/40
f 81/92/45 9/93/45 10/94/45
f 80/95/46 84/96/46 81/92/46
f 79/36/47 83/97/47 80/95/47
f 11/98/48 81/92/48 10/94/48
f 78/99/49 80/95/49 81/92/49
f 76/34/50 80/95/50 77/100/50
f 12/101/51 78/99/51 11/98/51
f 75/102/52 77/100/52 78/99/52
f 74/103/53 76/34/53 77/100/53
f 1/104/54 75/102/54 12/101/54
f 50/105/55 75/102/55 49/106/55
f 50/105/56 73/31/56 74/103/56
f 18/107/57 72/108/57 17/109/57
f 68/110/58 72/108/58 69/111/58
f 67/28/59 71/112/59 68/110/59
f 66/113/60 18/107/60 19/114/60
f 66/113/58 68/110/58 69/111/58
f 65/115/61 67/28/61 68/110/61
f 63/116/62 19/114/62 20/117/62
f 63/116/57 65/115/57 66/113/57
f 62/118/57 64/27/57 65/115/57
f 7/119/63 63/116/63 20/117/63
f 57/120/57 62/118/57 63/116/57
f 55/25/64 62/118/64 56/121/64
f 93/84/65 1/122/65 31/81/65
f 92/83/40 49/123/40 93/84/40
f 92/83/66 51/12/66 50/124/66
f 17/109/67 60/125/67 5/126/67
f 71/112/57 60/125/57 72/108/57
f 70/7/57 59/127/57 71/112/57
f 102/72/68 7/128/68 25/69/68
f 101/73/31 57/129/31 102/72/31
f 101/73/69 55/6/69 56/130/69
f 84/96/70 3/131/70 9/93/70
f 83/97/13 54/132/13 84/96/13
f 83/97/13 52/3/13 53/133/13
f 82/1/71 16/37/71 4/2/71
f 100/4/72 30/67/72 8/5/72
f 70/7/57 24/29/57 6/8/57
f 91/10/73 36/61/73 2/11/73
f 46/13/74 13/22/74 2/14/74
f 4/16/6 16/134/6 37/17/6
f 37/17/6 16/134/6 15/19/6
f 15/19/6 14/135/6 43/21/6
f 43/21/6 14/135/6 13/22/6
f 8/23/75 21/136/75 61/24/75
f 61/24/76 21/136/76 22/26/76
f 22/26/77 23/137/77 67/28/77
f 67/28/78 23/137/78 24/29/78
f 2/30/79 13/33/79 73/31/79
f 13/33/13 14/35/13 76/34/13
f 14/35/80 15/138/80 79/36/80
f 79/36/81 15/138/81 16/37/81
f 23/38/82 45/42/82 48/39/82
f 44/41/83 47/43/83 48/39/83
f 43/21/84 46/13/84 47/43/84
f 42/44/85 45/42/85 23/38/85
f 42/44/86 41/46/86 44/41/86
f 41/46/6 40/20/6 43/21/6
f 21/47/87 39/48/87 42/44/87
f 39/48/88 38/49/88 41/46/88
f 37/17/6 40/20/6 41/46/6
f 8/50/6 30/52/6 39/48/6
f 29/51/89 38/49/89 39/48/89
f 28/18/90 37/17/90 38/49/90
f 48/39/91 34/54/91 6/53/91
f 47/43/6 35/55/6 34/54/6
f 47/43/92 46/13/92 36/15/92
f 6/56/93 34/59/93 85/57/93
f 34/59/94 35/139/94 88/60/94
f 88/60/95 35/139/95 36/61/95
f 4/62/96 28/65/96 94/63/96
f 28/65/97 29/140/97 97/66/97
f 97/66/98 29/140/98 30/67/98
f 99/68/31 102/72/31 25/69/31
f 98/71/99 101/73/99 102/72/99
f 97/66/31 100/4/31 101/73/31
f 27/74/100 96/76/100 99/68/100
f 95/75/101 98/71/101 99/68/101
f 94/63/102 97/66/102 98/71/102
f 3/77/103 54/79/103 96/76/103
f 53/78/31 95/75/31 96/76/31
f 53/78/104 52/64/104 94/63/104
f 90/80/40 93/84/40 31/81/40
f 90/80/105 89/85/105 92/83/105
f 89/85/106 88/60/106 91/10/106
f 87/86/107 90/80/107 32/82/107
f 86/88/108 89/85/108 90/80/108
f 86/88/40 85/57/40 88/60/40
f 5/89/109 60/91/109 87/86/109
f 59/90/40 86/88/40 87/86/40
f 59/90/110 58/58/110 85/57/110
f 81/92/111 84/96/111 9/93/111
f 80/95/112 83/97/112 84/96/112
f 79/36/113 82/1/113 83/97/113
f 11/98/114 78/99/114 81/92/114
f 78/99/115 77/100/115 80/95/115
f 76/34/116 79/36/116 80/95/116
f 12/101/117 75/102/117 78/99/117
f 75/102/118 74/103/118 77/100/118
f 74/103/119 73/31/119 76/34/119
f 1/104/120 49/106/120 75/102/120
f 50/105/121 74/103/121 75/102/121
f 50/105/122 51/32/122 73/31/122
f 18/107/57 69/111/57 72/108/57
f 68/110/123 71/112/123 72/108/123
f 67/28/124 70/7/124 71/112/124
f 66/113/57 69/111/57 18/107/57
f 66/113/125 65/115/125 68/110/125
f 65/115/126 64/27/126 67/28/126
f 63/116/127 66/113/127 19/114/127
f 63/116/57 62/118/57 65/115/57
f 62/118/57 61/24/57 64/27/57
f 7/119/128 57/120/128 63/116/128
f 57/120/129 56/121/129 62/118/129
f 55/25/130 61/24/130 62/118/130
f 93/84/131 49/123/131 1/122/131
f 92/83/40 50/124/40 49/123/40
f 92/83/132 91/10/132 51/12/132
f 17/109/57 72/108/57 60/125/57
f 71/112/57 59/127/57 60/125/57
f 70/7/133 58/9/133 59/127/133
f 102/72/134 57/129/134 7/128/134
f 101/73/135 56/130/135 57/129/135
f 101/73/136 100/4/136 55/6/136
f 84/96/137 54/132/137 3/131/137
f 83/97/13 53/133/13 54/132/13
f 83/97/13 82/1/13 52/3/13
