# Blender v2.78 (sub 0) OBJ File: 'PolarizedLight.blend'
# www.blender.org
v 0.524875 0.515085 -3.012236
v 0.524875 0.515085 -6.405046
v 0.524875 -0.515085 -3.012236
v 0.524875 -0.515085 -6.405046
v -0.505295 0.515085 -3.012236
v -0.505295 0.515085 -6.405046
v -0.505295 -0.515085 -3.012236
v -0.505295 -0.515085 -6.405046
v 2.224612 2.191137 -6.326936
v 2.224612 2.191137 -7.024964
v 2.224612 -2.191137 -6.326936
v 2.224612 -2.191137 -7.024964
v -2.255284 2.191137 -6.326936
v -2.255284 2.191137 -7.024964
v -2.255284 -2.191137 -6.326936
v -2.255284 -2.191137 -7.024964
v 0.524875 -0.515085 -4.005254
v 0.524875 0.515085 -4.005254
v -0.505295 0.515085 -4.005254
v -0.505295 -0.515085 -4.005254
v 0.524875 -3.988764 -3.012236
v -0.505295 -3.988764 -3.012236
v -0.505295 -3.988764 -4.005254
v 0.524875 -3.988764 -4.005254
v -0.505295 4.017472 -3.012236
v 0.524875 4.017472 -3.012236
v 0.524875 4.017472 -4.005254
v -0.505295 4.017472 -4.005254
v -0.505295 -2.998335 -3.012236
v 0.524875 -2.998335 -3.012236
v 0.524875 -2.998335 -4.005254
v -0.505295 -2.998335 -4.005254
v -0.505295 2.983981 -4.005254
v 0.524875 2.983981 -4.005254
v 0.524875 2.983981 -3.012236
v -0.505295 2.983981 -3.012236
v 0.524875 -3.988764 0.002113
v -0.505295 -3.988764 0.002113
v -0.505295 -2.998335 0.002113
v -0.505295 4.017472 0.002113
v 0.524875 4.017472 0.002113
v 0.524875 -2.998335 0.002113
v 0.524875 2.983981 0.002113
v -0.505295 2.983981 0.002113
vt 0.8555 0.2419
vt 0.9242 0.1710
vt 0.9242 0.2419
vt 0.1375 0.8598
vt 0.0688 0.9307
vt 0.0688 0.8598
vt 0.5851 0.7588
vt 0.6539 0.5513
vt 0.6539 0.7588
vt 0.6290 0.3101
vt 0.6953 0.2392
vt 0.6953 0.3101
vt 0.7227 0.6224
vt 0.7914 0.5513
vt 0.7914 0.6224
vt 0.2012 0.3121
vt 0.2675 0.2412
vt 0.2675 0.3121
vt 0.0000 0.5513
vt 0.2926 0.8598
vt 0.0000 0.8598
vt 0.5851 0.8598
vt 0.2926 0.5513
vt 0.5851 0.5513
vt 0.9068 0.5513
vt 0.8602 0.8598
vt 0.8602 0.5513
vt 0.9242 0.5093
vt 0.9708 0.2076
vt 0.9708 0.5093
vt 0.9068 0.8598
vt 0.9534 0.5513
vt 0.9534 0.8598
vt 0.9534 0.8530
vt 1.0000 0.5513
vt 1.0000 0.8530
vt 0.4277 0.2412
vt 0.4277 0.3121
vt 0.7227 0.9925
vt 0.6539 0.8272
vt 0.7227 0.8272
vt 0.8555 0.2392
vt 0.8555 0.3101
vt 0.5851 0.8272
vt 0.6539 0.9925
vt 0.5851 0.9925
vt 0.6539 0.7588
vt 0.7227 0.8272
vt 0.6539 0.8272
vt 0.8602 0.7223
vt 0.7914 0.7905
vt 0.7914 0.7223
vt 0.2675 0.4831
vt 0.2012 0.5513
vt 0.2012 0.4831
vt 0.6290 0.0682
vt 0.6953 0.0000
vt 0.6953 0.0682
vt 0.6539 0.8272
vt 0.5851 0.8272
vt 0.6953 0.4801
vt 0.6290 0.5513
vt 0.6290 0.4801
vt 0.7227 1.0000
vt 0.7914 0.7924
vt 0.7914 1.0000
vt 0.2012 0.0712
vt 0.2675 0.0000
vt 0.2675 0.0712
vt 0.6290 0.2392
vt 0.8602 0.5513
vt 0.7914 0.5513
vt 0.8555 0.1710
vt 0.9242 0.0000
vt 0.2012 0.2412
vt 0.8555 0.4119
vt 0.7227 0.7924
vt 0.7914 0.7924
vt 0.2037 0.9307
vt 0.1375 0.8598
vt 0.2037 0.8598
vt 0.0688 0.8598
vt 0.0000 0.9309
vt 0.0000 0.8598
vt 0.4277 0.0000
vt 0.6290 0.0000
vt 0.4277 0.4801
vt 0.0000 0.4831
vt 0.7227 0.5513
vt 0.7227 0.7588
vt 0.9242 0.2076
vt 0.9930 0.0000
vt 0.9930 0.2076
vt 0.0000 0.0000
vt 0.2012 0.0000
vt 0.1375 0.9307
vt 0.5851 0.5513
vt 0.7227 0.5513
vt 0.2926 0.5513
vt 0.2926 0.8598
vt 0.9068 0.8598
vt 0.9242 0.2076
vt 0.9068 0.5513
vt 0.9534 0.5513
vt 0.6539 0.9925
vt 0.6539 0.8272
vt 0.8602 0.7905
vt 0.2675 0.5513
vt 0.6953 0.5513
vt 0.7227 0.7924
vt 0.8555 0.0000
vt 0.9242 0.4119
vt 0.1375 0.9307
vt 0.0688 0.9309
vt 0.4277 0.0682
vt 0.4277 0.5513
vt 0.0000 0.5513
vt 0.6539 0.5513
vt 0.9242 0.0000
vt 0.0000 0.0712
vn 0.0000 0.0000 1.0000
vn 0.0000 0.0000 -1.0000
vn 0.0000 1.0000 0.0000
vn 1.0000 0.0000 0.0000
vn -1.0000 0.0000 0.0000
vn 0.0000 -1.0000 0.0000
s off
f 5/1/1 3/2/1 1/3/1
f 2/4/2 8/5/2 6/6/2
f 25/7/3 41/8/3 26/9/3
f 1/10/4 17/11/4 18/12/4
f 33/13/2 27/14/2 34/15/2
f 7/16/5 19/17/5 20/18/5
f 13/19/1 11/20/1 9/21/1
f 10/22/2 16/23/2 14/24/2
f 11/25/6 16/26/6 12/27/6
f 9/28/4 12/29/4 10/30/4
f 13/31/3 10/32/3 14/33/3
f 15/34/5 14/35/5 16/36/5
f 20/18/5 6/37/5 8/38/5
f 19/39/3 2/40/3 6/41/3
f 18/12/4 4/42/4 2/43/4
f 17/44/6 8/45/6 4/46/6
f 21/47/6 23/48/6 24/49/6
f 31/50/2 23/51/2 32/52/2
f 32/53/5 22/54/5 29/55/5
f 30/56/4 24/57/4 31/58/4
f 25/7/3 27/59/3 28/60/3
f 34/61/4 26/62/4 35/63/4
f 29/64/3 42/65/3 30/66/3
f 36/67/5 28/68/5 33/69/5
f 3/70/4 31/58/4 17/11/4
f 20/18/5 29/55/5 7/16/5
f 17/71/2 32/52/2 20/72/2
f 7/73/1 30/74/1 3/2/1
f 5/75/5 33/69/5 19/17/5
f 1/3/1 36/76/1 5/1/1
f 18/12/4 35/63/4 1/10/4
f 19/77/2 34/15/2 18/78/2
f 39/79/1 37/80/1 42/81/1
f 43/82/1 40/83/1 44/84/1
f 30/56/4 37/85/4 21/86/4
f 26/62/4 43/87/4 35/63/4
f 22/54/5 39/88/5 29/55/5
f 21/47/6 38/89/6 22/90/6
f 35/91/6 44/92/6 36/93/6
f 36/67/5 40/94/5 25/95/5
f 5/1/1 7/73/1 3/2/1
f 2/4/2 4/96/2 8/5/2
f 25/7/3 40/97/3 41/8/3
f 1/10/4 3/70/4 17/11/4
f 33/13/2 28/98/2 27/14/2
f 7/16/5 5/75/5 19/17/5
f 13/19/1 15/99/1 11/20/1
f 10/22/2 12/100/2 16/23/2
f 11/25/6 15/101/6 16/26/6
f 9/28/4 11/102/4 12/29/4
f 13/31/3 9/103/3 10/32/3
f 15/34/5 13/104/5 14/35/5
f 20/18/5 19/17/5 6/37/5
f 19/39/3 18/105/3 2/40/3
f 18/12/4 17/11/4 4/42/4
f 17/44/6 20/106/6 8/45/6
f 21/47/6 22/90/6 23/48/6
f 31/50/2 24/107/2 23/51/2
f 32/53/5 23/108/5 22/54/5
f 30/56/4 21/86/4 24/57/4
f 25/7/3 26/9/3 27/59/3
f 34/61/4 27/109/4 26/62/4
f 29/64/3 39/110/3 42/65/3
f 36/67/5 25/95/5 28/68/5
f 3/70/4 30/56/4 31/58/4
f 20/18/5 32/53/5 29/55/5
f 17/71/2 31/50/2 32/52/2
f 7/73/1 29/111/1 30/74/1
f 5/75/5 36/67/5 33/69/5
f 1/3/1 35/112/1 36/76/1
f 18/12/4 34/61/4 35/63/4
f 19/77/2 33/13/2 34/15/2
f 39/79/1 38/113/1 37/80/1
f 43/82/1 41/114/1 40/83/1
f 30/56/4 42/115/4 37/85/4
f 26/62/4 41/116/4 43/87/4
f 22/54/5 38/117/5 39/88/5
f 21/47/6 37/118/6 38/89/6
f 35/91/6 43/119/6 44/92/6
f 36/67/5 44/120/5 40/94/5
