# Blender v2.78 (sub 0) OBJ File: 'PolarizedLight.blend'
# www.blender.org
v -21.535267 -10.863663 -7.047998
v -20.788521 -11.000000 -9.663223
v -22.202732 -9.585786 -9.663223
v -21.169308 -10.974401 -9.663223
v -21.534870 -10.863848 -9.663223
v -21.847816 -10.645413 -9.663223
v -22.066391 -10.332535 -9.663223
v -22.177074 -9.966928 -9.663223
v -22.177132 -9.966577 -7.047998
v -21.848145 -10.645087 -7.047998
v -22.202732 9.585786 -9.663223
v -20.788521 11.000000 -9.663223
v -22.177132 9.966577 -9.663223
v -22.066578 10.332141 -9.663223
v -21.848145 10.645087 -9.663223
v -21.535267 10.863662 -9.663223
v -21.169659 10.974343 -9.663223
v -21.169308 10.974401 -7.047998
v 18.384686 -9.585786 -9.663223
v 16.970474 -11.000000 -9.663223
v 18.359089 -9.966577 -9.663223
v 18.248535 -10.332141 -9.663223
v 18.030102 -10.645087 -9.663223
v 17.717224 -10.863663 -9.663223
v 17.351616 -10.974343 -9.663223
v 16.970474 11.000000 -9.663223
v 18.384686 9.585786 -9.663223
v 17.351265 10.974401 -9.663223
v 17.716827 10.863847 -9.663223
v 18.029774 10.645412 -9.663223
v 18.248348 10.332534 -9.663223
v 18.359032 9.966928 -9.663223
v 18.359089 9.966577 -7.047998
v -22.202732 9.585786 -7.047998
v 18.384686 9.585786 -7.047998
v 17.717224 10.863662 -7.047998
v 18.029774 -10.645413 -7.047998
v 18.248348 -10.332535 -7.047998
v 18.384686 -9.585786 -7.047998
v 16.970474 -11.000000 -7.047998
v -20.788521 -11.000000 -7.047998
v -21.169659 -10.974343 -7.047998
v -22.066578 -10.332141 -7.047998
v -22.202732 -9.585786 -7.047998
v -21.534870 10.863847 -7.047998
v -20.788521 11.000000 -7.047998
v -21.847816 10.645412 -7.047998
v -22.066391 10.332534 -7.047998
v -22.177074 9.966928 -7.047998
v 18.248535 10.332141 -7.047998
v 18.030102 10.645087 -7.047998
v 17.351616 10.974343 -7.047998
v 16.970474 11.000000 -7.047998
v 17.716827 -10.863848 -7.047998
v 17.351265 -10.974401 -7.047998
v 18.359032 -9.966928 -7.047998
v -21.169308 -10.974401 -9.663223
v -20.788521 -11.000000 -9.663223
v -21.534870 -10.863848 -9.663223
v -21.847816 -10.645413 -9.663223
v -22.066391 -10.332535 -9.663223
v -22.177074 -9.966928 -9.663223
v -22.202732 -9.585786 -9.663223
v -20.788521 11.000000 -9.663223
v -21.169659 10.974343 -9.663223
v -21.535267 10.863662 -9.663223
v -21.848145 10.645087 -9.663223
v -22.066578 10.332141 -9.663223
v -22.177132 9.966577 -9.663223
v -22.202732 9.585786 -9.663223
v 18.384686 9.585786 -9.663223
v 18.359032 9.966928 -9.663223
v 18.248348 10.332534 -9.663223
v 18.029774 10.645412 -9.663223
v 17.716827 10.863847 -9.663223
v 17.351265 10.974401 -9.663223
v 16.970474 11.000000 -9.663223
v 16.970474 -11.000000 -9.663223
v 17.351616 -10.974343 -9.663223
v 17.717224 -10.863663 -9.663223
v 18.030102 -10.645087 -9.663223
v 18.248535 -10.332141 -9.663223
v 18.359089 -9.966577 -9.663223
v 18.384686 -9.585786 -9.663223
v 18.248348 -10.332535 -7.047998
v 18.029774 -10.645413 -7.047998
v 18.384686 9.585786 -7.047998
v 18.384686 -9.585786 -7.047998
v 17.351265 -10.974401 -7.047998
v 16.970474 -11.000000 -7.047998
v -20.788521 -11.000000 -7.047998
v -21.847816 10.645412 -7.047998
v -22.066391 10.332534 -7.047998
v -20.788521 11.000000 -7.047998
v 16.970474 11.000000 -7.047998
v -22.202732 -9.585786 -7.047998
v -22.202732 9.585786 -7.047998
v -22.177074 9.966928 -7.047998
v -21.534870 10.863847 -7.047998
v -21.169308 10.974401 -7.047998
v -22.177132 -9.966577 -7.047998
v -22.066578 -10.332141 -7.047998
v -21.848145 -10.645087 -7.047998
v -21.535267 -10.863663 -7.047998
v -21.169659 -10.974343 -7.047998
v 18.359089 9.966577 -7.047998
v 18.248535 10.332141 -7.047998
v 18.030102 10.645087 -7.047998
v 17.717224 10.863662 -7.047998
v 17.351616 10.974343 -7.047998
v 17.716827 -10.863848 -7.047998
v 18.359032 -9.966928 -7.047998
vt 0.4243 0.9200
vt 0.0000 0.0332
vt 0.4243 0.0332
vt 0.4243 0.0332
vt 0.8487 0.9200
vt 0.4243 0.9200
vt 0.8991 0.0249
vt 0.9496 0.0159
vt 0.9496 0.0249
vt 0.8991 0.9116
vt 0.9496 0.9116
vt 0.8991 0.9206
vt 0.9496 0.9206
vt 0.8991 0.9292
vt 0.9496 0.9292
vt 0.8991 0.9365
vt 0.9496 1.0000
vt 1.0000 0.9927
vt 1.0000 1.0000
vt 0.9496 0.9926
vt 1.0000 0.9841
vt 0.9496 0.9841
vt 1.0000 0.9751
vt 0.8991 0.9292
vt 0.8487 0.9365
vt 0.8487 0.9292
vt 0.8991 0.9206
vt 0.8487 0.9206
vt 0.8991 0.9116
vt 0.8487 0.9116
vt 1.0000 0.5000
vt 0.9496 0.5073
vt 0.9496 0.5000
vt 1.0000 0.5074
vt 0.9496 0.5159
vt 1.0000 0.5159
vt 0.9496 0.5249
vt 0.9496 0.9751
vt 1.0000 0.5249
vt 1.0000 0.4927
vt 0.9496 0.5000
vt 0.9496 0.4926
vt 1.0000 0.4841
vt 0.9496 0.4841
vt 1.0000 0.4751
vt 0.9496 0.4751
vt 0.8991 0.0000
vt 0.8487 0.0073
vt 0.8487 0.0000
vt 0.8991 0.0074
vt 0.8487 0.0159
vt 0.8991 0.0159
vt 0.8487 0.0249
vt 0.8991 0.0249
vt 0.8991 0.0073
vt 0.9496 0.0000
vt 0.9496 0.0074
vt 0.8991 0.0159
vt 1.0000 0.0000
vt 0.9496 0.0073
vt 1.0000 0.0074
vt 0.9496 0.0159
vt 1.0000 0.0159
vt 0.9496 0.0249
vt 1.0000 0.0249
vt 0.0273 0.0000
vt 0.3971 0.0000
vt 0.4044 0.0006
vt 0.4115 0.0032
vt 0.4238 0.0243
vt 0.4175 0.0083
vt 0.4217 0.0157
vt 0.4238 0.9289
vt 0.3971 0.9532
vt 0.4217 0.9375
vt 0.4175 0.9448
vt 0.4115 0.9500
vt 0.4044 0.9526
vt 0.0273 0.9532
vt 0.0000 0.9200
vt 0.0199 0.9526
vt 0.0129 0.9500
vt 0.0005 0.9289
vt 0.0068 0.9448
vt 0.0026 0.9375
vt 0.0005 0.0243
vt 0.0026 0.0157
vt 0.0068 0.0083
vt 0.0129 0.0032
vt 0.0199 0.0006
vt 0.8214 0.9532
vt 0.4516 0.9532
vt 0.4443 0.9526
vt 0.4372 0.9500
vt 0.4248 0.9289
vt 0.4312 0.9448
vt 0.4270 0.9375
vt 0.4248 0.0243
vt 0.4516 0.0000
vt 0.4270 0.0157
vt 0.4312 0.0083
vt 0.4372 0.0032
vt 0.4443 0.0006
vt 0.8214 0.0000
vt 0.8487 0.0332
vt 0.8287 0.0006
vt 0.8358 0.0032
vt 0.8482 0.0243
vt 0.8418 0.0083
vt 0.8460 0.0157
vt 0.8482 0.9289
vt 0.8460 0.9375
vt 0.8418 0.9448
vt 0.8358 0.9500
vt 0.8287 0.9526
vt 0.9496 0.9365
vt 0.8991 0.9365
vt 1.0000 0.5000
vt 0.8991 0.0000
vn 0.0000 0.0000 1.0000
vn 0.0000 0.0000 -1.0000
vn 0.0336 -0.9994 0.0000
vn 0.1794 -0.9838 0.0000
vn 0.0335 -0.9994 0.0000
vn -0.0335 -0.9994 0.0000
vn -0.0336 -0.9994 0.0000
vn -0.1794 -0.9838 0.0000
vn -0.1796 -0.9837 0.0000
vn -0.4363 -0.8998 0.0000
vn -0.4366 -0.8996 0.0000
vn -0.7070 -0.7072 0.0000
vn -0.7072 -0.7069 0.0000
vn -0.8996 -0.4366 0.0000
vn -0.8998 -0.4363 0.0000
vn -0.9837 -0.1796 0.0000
vn -0.9838 -0.1794 0.0000
vn -0.9994 -0.0336 0.0000
vn -0.4366 0.8996 0.0000
vn -0.7070 0.7072 0.0000
vn -0.4363 0.8998 0.0000
vn -0.1796 0.9837 0.0000
vn -0.1794 0.9838 0.0000
vn -0.0336 0.9994 0.0000
vn -0.0335 0.9994 0.0000
vn -0.7072 0.7070 0.0000
vn -0.8996 0.4366 0.0000
vn -0.8998 0.4363 0.0000
vn -0.9837 0.1796 0.0000
vn -0.9838 0.1794 0.0000
vn -0.9994 0.0336 0.0000
vn -0.9994 -0.0335 0.0000
vn -0.9994 0.0335 0.0000
vn 0.8996 0.4366 0.0000
vn 0.7072 0.7070 0.0000
vn 0.8998 0.4363 0.0000
vn 0.9837 0.1796 0.0000
vn 0.9838 0.1794 0.0000
vn 0.9994 0.0336 0.0000
vn 0.9994 0.0335 0.0000
vn 0.7070 0.7072 0.0000
vn 0.4366 0.8996 0.0000
vn 0.4363 0.8998 0.0000
vn 0.1796 0.9837 0.0000
vn 0.1794 0.9838 0.0000
vn 0.0336 0.9994 0.0000
vn 0.0335 0.9994 0.0000
vn 0.4366 -0.8996 0.0000
vn 0.7070 -0.7072 0.0000
vn 0.4363 -0.8998 0.0000
vn 0.1796 -0.9837 0.0000
vn 0.7072 -0.7069 0.0000
vn 0.8996 -0.4366 0.0000
vn 0.8998 -0.4363 0.0000
vn 0.9837 -0.1796 0.0000
vn 0.9838 -0.1794 0.0000
vn 0.9994 -0.0336 0.0000
vn 0.9994 -0.0335 0.0000
s 1
f 46/1/1 40/2/1 53/3/1
f 77/4/2 58/5/2 64/6/2
f 20/7/3 89/8/4 90/9/5
f 90/9/5 2/10/6 20/7/3
f 91/11/7 4/12/8 2/10/6
f 105/13/9 5/14/10 4/12/8
f 104/15/11 6/16/12 5/14/10
f 103/17/13 7/18/14 6/19/12
f 102/20/15 8/21/16 7/18/14
f 101/22/17 3/23/18 8/21/16
f 16/24/19 47/25/20 99/26/21
f 17/27/22 99/26/21 100/28/23
f 12/29/24 100/28/23 94/30/25
f 15/31/26 48/32/27 47/33/20
f 14/34/28 98/35/29 48/32/27
f 13/36/30 97/37/31 98/35/29
f 96/38/32 11/39/33 3/23/18
f 31/40/34 108/41/35 50/42/36
f 32/43/37 50/42/36 33/44/38
f 27/45/39 33/44/38 35/46/40
f 30/47/41 36/48/42 108/49/35
f 29/50/43 52/51/44 36/48/42
f 28/52/45 95/53/46 52/51/44
f 94/30/25 26/54/47 12/29/24
f 24/55/48 37/56/49 54/57/50
f 25/58/51 54/57/50 89/8/4
f 23/59/52 38/60/53 37/56/49
f 22/61/54 56/62/55 38/60/53
f 21/63/56 39/64/57 56/62/55
f 35/46/40 19/65/58 27/45/39
f 88/66/1 87/67/1 53/3/1
f 106/68/1 107/69/1 110/70/1
f 51/71/1 109/72/1 107/69/1
f 110/70/1 53/3/1 106/68/1
f 46/1/1 18/73/1 34/74/1
f 45/75/1 92/76/1 93/77/1
f 93/77/1 49/78/1 45/75/1
f 34/74/1 44/79/1 41/80/1
f 9/81/1 43/82/1 42/83/1
f 10/84/1 1/85/1 43/82/1
f 42/83/1 41/80/1 9/81/1
f 40/2/1 55/86/1 88/66/1
f 111/87/1 86/88/1 85/89/1
f 85/89/1 112/90/1 111/87/1
f 87/67/1 106/68/1 53/3/1
f 109/72/1 110/70/1 107/69/1
f 18/73/1 45/75/1 49/78/1
f 49/78/1 34/74/1 18/73/1
f 43/82/1 1/85/1 42/83/1
f 41/80/1 40/2/1 46/1/1
f 111/87/1 112/90/1 55/86/1
f 88/66/1 53/3/1 40/2/1
f 46/1/1 34/74/1 41/80/1
f 9/81/1 41/80/1 44/79/1
f 112/90/1 88/66/1 55/86/1
f 63/91/2 70/92/2 64/6/2
f 69/93/2 68/94/2 65/95/2
f 67/96/2 66/97/2 68/94/2
f 65/95/2 64/6/2 69/93/2
f 77/4/2 76/98/2 71/99/2
f 75/100/2 74/101/2 73/102/2
f 73/102/2 72/103/2 75/100/2
f 71/99/2 84/104/2 78/105/2
f 83/106/2 82/107/2 79/108/2
f 81/109/2 80/110/2 82/107/2
f 79/108/2 78/105/2 83/106/2
f 58/5/2 57/111/2 63/91/2
f 59/112/2 60/113/2 61/114/2
f 61/114/2 62/115/2 59/112/2
f 70/92/2 69/93/2 64/6/2
f 66/97/2 65/95/2 68/94/2
f 76/98/2 75/100/2 72/103/2
f 72/103/2 71/99/2 76/98/2
f 82/107/2 80/110/2 79/108/2
f 78/105/2 58/5/2 77/4/2
f 59/112/2 62/115/2 57/111/2
f 63/91/2 64/6/2 58/5/2
f 77/4/2 71/99/2 78/105/2
f 83/106/2 78/105/2 84/104/2
f 62/115/2 63/91/2 57/111/2
f 20/7/3 25/58/51 89/8/4
f 90/9/5 91/11/7 2/10/6
f 91/11/7 105/13/9 4/12/8
f 105/13/9 104/15/11 5/14/10
f 104/15/11 103/116/13 6/16/12
f 103/17/13 102/20/15 7/18/14
f 102/20/15 101/22/17 8/21/16
f 101/22/17 96/38/32 3/23/18
f 16/24/19 15/117/26 47/25/20
f 17/27/22 16/24/19 99/26/21
f 12/29/24 17/27/22 100/28/23
f 15/31/26 14/34/28 48/32/27
f 14/34/28 13/36/30 98/35/29
f 13/36/30 11/39/33 97/37/31
f 96/38/32 97/37/31 11/39/33
f 31/40/34 30/118/41 108/41/35
f 32/43/37 31/40/34 50/42/36
f 27/45/39 32/43/37 33/44/38
f 30/47/41 29/50/43 36/48/42
f 29/50/43 28/52/45 52/51/44
f 28/52/45 26/54/47 95/53/46
f 94/30/25 95/53/46 26/54/47
f 24/55/48 23/119/52 37/56/49
f 25/58/51 24/55/48 54/57/50
f 23/59/52 22/61/54 38/60/53
f 22/61/54 21/63/56 56/62/55
f 21/63/56 19/65/58 39/64/57
f 35/46/40 39/64/57 19/65/58
